<svg width="81" height="48" viewBox="0 0 81 48" fill="none" xmlns="http://www.w3.org/2000/svg">
<g clip-path="url(#clip0_5670_411853)">
<path d="M80.825 33H0.0500488V47.875H80.825V33Z" fill="#EF7D00"/>
<path d="M36.5 28.65H40.5999V1.525H36.5V28.65ZM12.575 5.375H14.4249C17.9249 5.375 20.5499 6.2 22.3499 7.85C24.3499 9.7 25.3499 12.125 25.3499 15.1C25.3499 18.05 24.35 20.45 22.325 22.3C21.35 23.2 20.25 23.85 19.025 24.25C17.8 24.625 16.2749 24.825 14.4249 24.825H12.575V5.375ZM14.0999 28.65C16.8499 28.65 18.9749 28.4 20.4749 27.9C22.0749 27.4 23.625 26.5 25.075 25.2C28 22.625 29.45 19.25 29.45 15.075C29.45 10.925 28.05 7.55 25.25 5C23.875 3.725 22.325 2.85 20.625 2.3C19.05 1.75 16.875 1.5 14.15 1.5H8.44995V28.65H14.0999Z" fill="#333534"/>
<path d="M59.475 0L46.05 28.85H50.45L53.475 22.25L55.175 18.4L59.4 9.175L67.95 28.85H72.425L59.475 0Z" fill="#333534"/>
<path d="M64.45 20.8502C62.875 21.5752 61.15 21.9502 59.3 21.9502C56 21.9502 53 20.6752 50.775 18.5752L49.425 21.5252C52.125 23.7252 55.575 25.0502 59.325 25.0502C61.6 25.0502 63.75 24.5752 65.7 23.7002L64.45 20.8502Z" fill="#EF7D00"/>
<path d="M11.7 45.0002H13L8.40002 34.9502L3.77502 45.0002H5.07502L6.67502 41.4752L8.40002 37.5752L10.1 41.4752L11.7 45.0002Z" fill="white"/>
<path d="M10.4 42.1258C9.79995 42.4258 9.12495 42.6008 8.39995 42.6008C7.24995 42.6008 6.19995 42.1508 5.42495 41.4258L4.94995 42.4508C5.89995 43.2258 7.09995 43.6758 8.39995 43.6758C9.27495 43.6758 10.1249 43.4758 10.8499 43.1008L10.4 42.1258Z" fill="#333534"/>
<path d="M52.0999 36.4504H52.5249C54.9499 36.4504 57.0749 37.3504 57.0749 40.1504C57.0749 42.9254 54.9749 43.8504 52.5249 43.8504H52.0999V36.4504ZM50.8999 44.9504H52.8499C55.8749 44.9504 58.2499 43.3754 58.2499 40.1254C58.2499 36.9504 55.8249 35.4004 52.8749 35.4004H50.8999V44.9504Z" fill="white"/>
<path d="M75.825 44.9502H77.1L72.525 34.9502L67.95 44.9502H69.225L70.825 41.4502L72.525 37.5752L75.825 44.9502Z" fill="white"/>
<path d="M70.1 43.0754C70.825 43.4504 71.65 43.6504 72.525 43.6504C73.825 43.6504 75.025 43.2004 75.95 42.4254L75.475 41.4004C74.7 42.1254 73.675 42.5754 72.525 42.5754C71.8 42.5754 71.15 42.4004 70.55 42.1004L70.1 43.0754Z" fill="white"/>
<path d="M39.875 43.0754C40.6 43.4504 41.425 43.6504 42.3 43.6504C43.6 43.6504 44.8 43.2004 45.725 42.4254L45.25 41.4004C44.475 42.1254 43.45 42.5754 42.3 42.5754C41.575 42.5754 40.925 42.4004 40.325 42.1004L39.875 43.0754Z" fill="white"/>
<path d="M42.325 34.9502L37.725 44.9502H39.025L40.6 41.4502L42.325 37.5752L45.6 44.9502H46.9L42.325 34.9502Z" fill="white"/>
<path d="M63.95 35.375H62.75V44.95H63.95V35.375Z" fill="white"/>
<path d="M33.9499 35.8004C33.2249 35.3504 32.3749 35.1504 31.5499 35.1504C28.7249 35.1504 26.45 37.3504 26.45 40.2004C26.45 42.9754 28.7 45.1504 31.45 45.1504C32.3 45.1504 33.2249 44.9004 33.9749 44.4754V43.0754C33.2749 43.7004 32.3749 44.0754 31.4249 44.0754C29.2999 44.0754 27.6749 42.2754 27.6749 40.2004C27.6749 38.0754 29.325 36.3004 31.45 36.3004C32.35 36.3004 33.2999 36.6254 33.9749 37.2504V35.8004H33.9499Z" fill="white"/>
<path d="M18.05 36.425H18.375C19.55 36.425 20.975 36.65 20.975 38.15C20.975 39.675 19.65 39.9 18.425 39.9H18.05V36.425ZM19.8 40.775C21.175 40.6 22.1 39.475 22.1 38.1C22.1 37.175 21.65 36.275 20.85 35.825C20.1 35.4 19.175 35.375 18.325 35.375H16.875V44.95H18.075V40.9H18.575L21.4 44.95H22.85L19.8 40.775Z" fill="white"/>
</g>
<defs>
<clipPath id="clip0_5670_411853">
<rect width="81" height="48" fill="white"/>
</clipPath>
</defs>
</svg>
